<svg xmlns="http://www.w3.org/2000/svg" xmlns:xlink="http://www.w3.org/1999/xlink" width="64" height="1287" viewBox="0 0 64 1287"><svg width="33" height="33" viewBox="0 0 33 33" id="01-controls-purple" y="0"><title>Group</title><g fill="none" fill-rule="evenodd"><path d="M0 0h33v33H0z"></path><path d="M16.5 33C7.387 33 0 25.613 0 16.5S7.387 0 16.5 0 33 7.387 33 16.5 25.613 33 16.5 33zm0-30.25C8.906 2.75 2.75 8.906 2.75 16.5S8.906 30.25 16.5 30.25s13.75-6.156 13.75-13.75A13.75 13.75 0 0 0 16.5 2.75zm11 13.76v-.01h-2.75a8.25 8.25 0 1 0-16.5 0H5.5c0-6.075 4.925-11 11-11s11 4.925 11 11v.01zm-12.308 1.597a1.323 1.323 0 0 1-.048-.242v-5.479a1.356 1.356 0 0 1 2.712 0v5.48a1.286 1.286 0 0 1-.048.24 4.125 4.125 0 1 1-2.616.001zm1.308 5.268a1.375 1.375 0 1 0 0-2.75 1.375 1.375 0 0 0 0 2.75z" fill="#D18EE2"></path></g></svg><svg width="33" height="33" viewBox="0 0 33 33" id="02-controls-white" y="33"><title>Group</title><g fill="none" fill-rule="evenodd"><path d="M0 0h33v33H0z"></path><path d="M16.5 33C7.387 33 0 25.613 0 16.5S7.387 0 16.5 0 33 7.387 33 16.5 25.613 33 16.5 33zm0-30.25C8.906 2.75 2.75 8.906 2.75 16.5S8.906 30.25 16.5 30.25s13.75-6.156 13.75-13.75A13.75 13.75 0 0 0 16.5 2.75zm11 13.76v-.01h-2.75a8.25 8.25 0 1 0-16.5 0H5.5c0-6.075 4.925-11 11-11s11 4.925 11 11v.01zm-12.308 1.597a1.323 1.323 0 0 1-.048-.242v-5.479a1.356 1.356 0 0 1 2.712 0v5.48a1.286 1.286 0 0 1-.048.24 4.125 4.125 0 1 1-2.616.001zm1.308 5.268a1.375 1.375 0 1 0 0-2.75 1.375 1.375 0 0 0 0 2.75z" fill="#FFF"></path></g></svg><svg width="33" height="33" viewBox="0 0 33 33" id="03-shopping-cart-purple" y="66"><title>Group-2</title><g fill="none" fill-rule="evenodd"><path d="M0 0h33v33H0z"></path><path d="M9.9 26.4a3.31 3.31 0 0 0-3.3 3.3A3.31 3.31 0 0 0 9.9 33a3.31 3.31 0 0 0 3.3-3.3 3.31 3.31 0 0 0-3.3-3.3zM0 0v3.3h3.3l5.94 12.54-2.31 3.96c-.165.495-.33 1.155-.33 1.65a3.31 3.31 0 0 0 3.3 3.3h19.8v-3.3H10.56a.355.355 0 0 1-.33-.33v-.165l1.485-2.805h12.21c1.32 0 2.31-.66 2.805-1.65l5.94-10.725c.33-.33.33-.495.33-.825 0-.99-.66-1.65-1.65-1.65H6.93L5.445 0H0zm26.4 26.4a3.31 3.31 0 0 0-3.3 3.3 3.31 3.31 0 0 0 3.3 3.3 3.31 3.31 0 0 0 3.3-3.3 3.31 3.31 0 0 0-3.3-3.3z" fill="#D18EE2"></path></g></svg><svg width="33" height="33" viewBox="0 0 33 33" id="04-shopping-cart-white" y="99"><title>Group-2</title><g fill="none" fill-rule="evenodd"><path d="M0 0h33v33H0z"></path><path d="M9.9 26.4a3.31 3.31 0 0 0-3.3 3.3A3.31 3.31 0 0 0 9.9 33a3.31 3.31 0 0 0 3.3-3.3 3.31 3.31 0 0 0-3.3-3.3zM0 0v3.3h3.3l5.94 12.54-2.31 3.96c-.165.495-.33 1.155-.33 1.65a3.31 3.31 0 0 0 3.3 3.3h19.8v-3.3H10.56a.355.355 0 0 1-.33-.33v-.165l1.485-2.805h12.21c1.32 0 2.31-.66 2.805-1.65l5.94-10.725c.33-.33.33-.495.33-.825 0-.99-.66-1.65-1.65-1.65H6.93L5.445 0H0zm26.4 26.4a3.31 3.31 0 0 0-3.3 3.3 3.31 3.31 0 0 0 3.3 3.3 3.31 3.31 0 0 0 3.3-3.3 3.31 3.31 0 0 0-3.3-3.3z" fill="#FFF"></path></g></svg><svg width="33" height="33" viewBox="0 0 33 32" id="05-factory-purple" y="132"><title>Group-3</title><g transform="translate(0 -1)" fill="none" fill-rule="evenodd"><path d="M0 0h33v33H0z"></path><g transform="translate(0 1)" fill="#D18EE2"><path d="M30.674 15.922L29.126.543S28.593 0 27.553 0c-1.041 0-1.525.543-1.525.543l-1.549 15.379h6.195zM22.757 15.922L21.674 5.156s-.372-.38-1.102-.38c-.729 0-1.068.38-1.068.38l-1.082 10.766h4.335z"></path><path d="M28.652 23.644c0 .426-.348.77-.774.77h-4.646a.771.771 0 0 1-.774-.77v-2.306a.77.77 0 0 1 .774-.768h4.646a.77.77 0 0 1 .774.768v2.306zm-9.292 0c0 .426-.348.77-.774.77h-4.647a.771.771 0 0 1-.774-.77v-2.306a.77.77 0 0 1 .774-.768h4.647a.77.77 0 0 1 .774.768v2.306zm-9.293 0c0 .426-.348.77-.774.77H4.646a.771.771 0 0 1-.774-.77v-2.306a.77.77 0 0 1 .774-.768h4.647a.77.77 0 0 1 .774.768v2.306zm21.683-6.807l-14.714-.01V14.52a.765.765 0 0 0-.34-.637.77.77 0 0 0-.722-.077L9.292 16.46v-1.94a.77.77 0 0 0-1.062-.713L.487 16.88a.769.769 0 0 0-.487.714v13.408c0 .424.347.768.774.768H31.75a.771.771 0 0 0 .775-.768V17.606a.77.77 0 0 0-.774-.77z"></path></g></g></svg><svg width="33" height="33" viewBox="0 0 33 32" id="06-factory-white" y="165"><title>Group-3</title><g transform="translate(0 -1)" fill="none" fill-rule="evenodd"><path d="M0 0h33v33H0z"></path><g transform="translate(0 1)" fill="#FFF"><path d="M30.674 15.922L29.126.543S28.593 0 27.553 0c-1.041 0-1.525.543-1.525.543l-1.549 15.379h6.195zM22.757 15.922L21.674 5.156s-.372-.38-1.102-.38c-.729 0-1.068.38-1.068.38l-1.082 10.766h4.335z"></path><path d="M28.652 23.644c0 .426-.348.77-.774.77h-4.646a.771.771 0 0 1-.774-.77v-2.306a.77.77 0 0 1 .774-.768h4.646a.77.77 0 0 1 .774.768v2.306zm-9.292 0c0 .426-.348.77-.774.77h-4.647a.771.771 0 0 1-.774-.77v-2.306a.77.77 0 0 1 .774-.768h4.647a.77.77 0 0 1 .774.768v2.306zm-9.293 0c0 .426-.348.77-.774.77H4.646a.771.771 0 0 1-.774-.77v-2.306a.77.77 0 0 1 .774-.768h4.647a.77.77 0 0 1 .774.768v2.306zm21.683-6.807l-14.714-.01V14.52a.765.765 0 0 0-.34-.637.77.77 0 0 0-.722-.077L9.292 16.46v-1.94a.77.77 0 0 0-1.062-.713L.487 16.88a.769.769 0 0 0-.487.714v13.408c0 .424.347.768.774.768H31.75a.771.771 0 0 0 .775-.768V17.606a.77.77 0 0 0-.774-.77z"></path></g></g></svg><svg width="33" height="33" viewBox="0 0 33 33" id="07-box-purple" y="198"><title>Group-4</title><g fill="none" fill-rule="evenodd"><path d="M0 0h33v33H0z"></path><path d="M30.25 8.25v22A2.75 2.75 0 0 1 27.5 33h-22a2.75 2.75 0 0 1-2.75-2.75v-22A2.75 2.75 0 0 1 0 5.5V2.75A2.75 2.75 0 0 1 2.75 0h27.5A2.75 2.75 0 0 1 33 2.75V5.5a2.75 2.75 0 0 1-2.75 2.75zm-24.75 22h22v-22h-22v22zm24.75-27.5H2.75V5.5h27.5V2.75zm-11 16.5h-5.5a4.125 4.125 0 1 1 0-8.25h5.5a4.125 4.125 0 1 1 0 8.25z" fill="#D18EE2"></path></g></svg><svg width="33" height="33" viewBox="0 0 33 33" id="08-box-white" y="231"><title>Group-4</title><g fill="none" fill-rule="evenodd"><path d="M0 0h33v33H0z"></path><path d="M30.25 8.25v22A2.75 2.75 0 0 1 27.5 33h-22a2.75 2.75 0 0 1-2.75-2.75v-22A2.75 2.75 0 0 1 0 5.5V2.75A2.75 2.75 0 0 1 2.75 0h27.5A2.75 2.75 0 0 1 33 2.75V5.5a2.75 2.75 0 0 1-2.75 2.75zm-24.75 22h22v-22h-22v22zm24.75-27.5H2.75V5.5h27.5V2.75zm-11 16.5h-5.5a4.125 4.125 0 1 1 0-8.25h5.5a4.125 4.125 0 1 1 0 8.25z" fill="#FFF"></path></g></svg><svg width="33" height="33" viewBox="0 0 21 33" id="09-document-purple" y="264"><title>Group-5</title><g transform="translate(-3)" fill="none" fill-rule="evenodd"><path d="M0 0h33v33H0z"></path><path d="M6.3 0A3.31 3.31 0 0 0 3 3.3v26.4A3.31 3.31 0 0 0 6.3 33h19.8a3.31 3.31 0 0 0 3.3-3.3V9.9L19.5 0H6.3zm11.55 11.55V2.475l9.075 9.075H17.85z" fill="#D18EE2"></path></g></svg><svg width="33" height="33" viewBox="0 0 21 33" id="10-document-white" y="297"><title>Group-5</title><g transform="translate(-3)" fill="none" fill-rule="evenodd"><path d="M0 0h33v33H0z"></path><path d="M6.3 0A3.31 3.31 0 0 0 3 3.3v26.4A3.31 3.31 0 0 0 6.3 33h19.8a3.31 3.31 0 0 0 3.3-3.3V9.9L19.5 0H6.3zm11.55 11.55V2.475l9.075 9.075H17.85z" fill="#FFF"></path></g></svg><svg width="33" height="33" viewBox="0 0 33 33" id="11-pricing-label-purple" y="330"><title>pricing-label-purple</title><g transform="translate(-2)" fill="none" fill-rule="evenodd"><path d="M31.658.015a.614.614 0 0 0-.74.458c-.835 3.345-2.107 3.466-4.249 3.686-1.31.13-2.974.31-4.752 1.342-.96.553-1.658 1.51-2.212 2.55l-1.948-1.12-5.21 1.298L2 25.01l12.876 7.413 10.537-16.818-1.242-4.982-3.421-1.97c.467-.9 1.039-1.709 1.75-2.121 1.527-.89 2.952-1.05 4.224-1.171 2.229-.203 4.333-.414 5.395-4.638.09-.297-.118-.637-.461-.708zM16.561 19.106c-.39-.256-1.073-.712-2.256-.888-1.06-.167-1.484.252-1.536.697-.081.49.44.948 1.714 1.65 1.825.956 2.437 1.94 2.184 3.375-.262 1.398-1.466 2.443-3.406 2.496l-.283 1.639-1.603-.228.272-1.518c-1.068-.204-2.076-.659-2.636-1.107l.82-1.772a5.42 5.42 0 0 0 2.588 1.079c.935.159 1.635-.133 1.766-.754.091-.61-.344-1.05-1.504-1.624-1.635-.847-2.687-1.8-2.414-3.318.261-1.398 1.446-2.36 3.223-2.411l.273-1.518 1.603.227-.224 1.389c1.069.204 1.763.54 2.295.878l-.876 1.708zm3.71-9.275c1.187.684 1.565 2.197.828 3.322-.388.567-.937.978-1.55 1.131-.612.153-1.319.094-1.898-.271a2.349 2.349 0 0 1-.828-3.322c.349-.557.936-.978 1.549-1.131.23-.057.43-.068.631-.079-.167.473-.305.9-.414 1.28a1.158 1.158 0 0 0-.721.532 1.182 1.182 0 0 0-.133.935c.082.332.271.598.556.763.285.164.62.198.964.112.345-.086.624-.273.798-.552.175-.279.216-.602.133-.935a1.248 1.248 0 0 0-.347-.58c.117-.342.255-.769.431-1.205z" fill="#D18EE2"></path><path d="M0 0h33v33H0z"></path></g></svg><svg width="33" height="33" viewBox="0 0 33 33" id="12-pricing-label-white" y="363"><title>pricing-label-purple</title><g transform="translate(-2)" fill="none" fill-rule="evenodd"><path d="M31.658.015a.614.614 0 0 0-.74.458c-.835 3.345-2.107 3.466-4.249 3.686-1.31.13-2.974.31-4.752 1.342-.96.553-1.658 1.51-2.212 2.55l-1.948-1.12-5.21 1.298L2 25.01l12.876 7.413 10.537-16.818-1.242-4.982-3.421-1.97c.467-.9 1.039-1.709 1.75-2.121 1.527-.89 2.952-1.05 4.224-1.171 2.229-.203 4.333-.414 5.395-4.638.09-.297-.118-.637-.461-.708zM16.561 19.106c-.39-.256-1.073-.712-2.256-.888-1.06-.167-1.484.252-1.536.697-.081.49.44.948 1.714 1.65 1.825.956 2.437 1.94 2.184 3.375-.262 1.398-1.466 2.443-3.406 2.496l-.283 1.639-1.603-.228.272-1.518c-1.068-.204-2.076-.659-2.636-1.107l.82-1.772a5.42 5.42 0 0 0 2.588 1.079c.935.159 1.635-.133 1.766-.754.091-.61-.344-1.05-1.504-1.624-1.635-.847-2.687-1.8-2.414-3.318.261-1.398 1.446-2.36 3.223-2.411l.273-1.518 1.603.227-.224 1.389c1.069.204 1.763.54 2.295.878l-.876 1.708zm3.71-9.275c1.187.684 1.565 2.197.828 3.322-.388.567-.937.978-1.55 1.131-.612.153-1.319.094-1.898-.271a2.349 2.349 0 0 1-.828-3.322c.349-.557.936-.978 1.549-1.131.23-.057.43-.068.631-.079-.167.473-.305.9-.414 1.28a1.158 1.158 0 0 0-.721.532 1.182 1.182 0 0 0-.133.935c.082.332.271.598.556.763.285.164.62.198.964.112.345-.086.624-.273.798-.552.175-.279.216-.602.133-.935a1.248 1.248 0 0 0-.347-.58c.117-.342.255-.769.431-1.205z" fill="#FFF"></path><path d="M0 0h33v33H0z"></path></g></svg><svg width="33" height="33" viewBox="0 0 33 33" id="13-shapes-purple" y="396"><title>Group-7</title><g fill="none" fill-rule="evenodd"><path d="M0 0h33v33H0z"></path><path d="M30.25 33H22a2.75 2.75 0 0 1-2.75-2.75V22A2.75 2.75 0 0 1 22 19.25h8.25A2.75 2.75 0 0 1 33 22v8.25A2.75 2.75 0 0 1 30.25 33zm0-11H22v8.25h8.25V22zM11 13.75H2.75A2.75 2.75 0 0 1 0 11V2.75A2.75 2.75 0 0 1 2.75 0H11a2.75 2.75 0 0 1 2.75 2.75V11A2.75 2.75 0 0 1 11 13.75zm15.206-.162a6.794 6.794 0 1 0 0-13.588 6.794 6.794 0 0 0 0 13.588zM6.794 19.412L13.588 33H0l6.794-13.588z" fill="#D18EE2"></path></g></svg><svg width="33" height="33" viewBox="0 0 33 33" id="14-shapes-white" y="429"><title>Group-7</title><g fill="none" fill-rule="evenodd"><path d="M0 0h33v33H0z"></path><path d="M30.25 33H22a2.75 2.75 0 0 1-2.75-2.75V22A2.75 2.75 0 0 1 22 19.25h8.25A2.75 2.75 0 0 1 33 22v8.25A2.75 2.75 0 0 1 30.25 33zm0-11H22v8.25h8.25V22zM11 13.75H2.75A2.75 2.75 0 0 1 0 11V2.75A2.75 2.75 0 0 1 2.75 0H11a2.75 2.75 0 0 1 2.75 2.75V11A2.75 2.75 0 0 1 11 13.75zm15.206-.162a6.794 6.794 0 1 0 0-13.588 6.794 6.794 0 0 0 0 13.588zM6.794 19.412L13.588 33H0l6.794-13.588z" fill="#FFF"></path></g></svg><svg width="33" height="33" viewBox="0 0 33 33" id="15-gear-purple" y="462"><title>Group-8</title><g fill="none" fill-rule="evenodd"><path d="M0 0h33v33H0z"></path><path d="M32.892 18.411a2.017 2.017 0 0 1-1.993 1.788h-.275a2.218 2.218 0 0 0-1.472 3.867c.785.723.88 1.928.22 2.766a16.281 16.281 0 0 1-2.68 2.638 2.022 2.022 0 0 1-1.238.43 2.053 2.053 0 0 1-1.499-.655 2.363 2.363 0 0 0-1.719-.717 2.073 2.073 0 0 0-.77.145 2.247 2.247 0 0 0-1.374 2.145A2.03 2.03 0 0 1 18.29 32.9c-1.234.137-2.479.133-3.712-.01a2.012 2.012 0 0 1-1.774-2.127 2.25 2.25 0 0 0-1.36-2.18 2.062 2.062 0 0 0-.785-.15 2.373 2.373 0 0 0-1.718.716 2.033 2.033 0 0 1-2.778.22 16.298 16.298 0 0 1-2.598-2.645 2.006 2.006 0 0 1 .22-2.736 2.254 2.254 0 0 0 .563-2.487 2.2 2.2 0 0 0-1.993-1.375h-.083A2.161 2.161 0 0 1 .113 18.33a15.573 15.573 0 0 1 0-3.752 1.996 1.996 0 0 1 2.063-1.788 2.38 2.38 0 0 0 2.241-1.355c.36-.871.134-1.874-.564-2.507a2.04 2.04 0 0 1-.22-2.764 16.537 16.537 0 0 1 2.668-2.64 2.07 2.07 0 0 1 1.25-.43c.57.001 1.114.24 1.5.66.452.46 1.073.717 1.718.71a2.1 2.1 0 0 0 .77-.137 2.25 2.25 0 0 0 1.375-2.15A2.028 2.028 0 0 1 14.715.1a16.512 16.512 0 0 1 3.713.01 2.013 2.013 0 0 1 1.774 2.125 2.233 2.233 0 0 0 1.36 2.182c.25.1.516.15.784.149a2.377 2.377 0 0 0 1.72-.714 2.024 2.024 0 0 1 2.763-.222c.97.777 1.846 1.663 2.612 2.641.665.83.568 2.035-.22 2.75a2.217 2.217 0 0 0 1.526 3.86 2.159 2.159 0 0 1 2.145 1.787 16.32 16.32 0 0 1 0 3.743zm-2.722-3.194a4.422 4.422 0 0 1-3.08-7.49 13.226 13.226 0 0 0-1.787-1.808 4.609 4.609 0 0 1-3.149 1.238 4.209 4.209 0 0 1-1.636-.32 4.437 4.437 0 0 1-2.709-4.053 13.79 13.79 0 0 0-2.544 0 4.154 4.154 0 0 1-2.846 3.712 4.01 4.01 0 0 1-1.512.574 4.609 4.609 0 0 1-3.135-1.225 13.337 13.337 0 0 0-1.843 1.81 4.436 4.436 0 0 1 .908 4.791 4.537 4.537 0 0 1-4.042 2.703 14.75 14.75 0 0 0-.014 2.586 4.415 4.415 0 0 1 3.08 7.492 14.919 14.919 0 0 0 1.787 1.81 4.655 4.655 0 0 1 3.149-1.238 4.228 4.228 0 0 1 1.65.322 4.428 4.428 0 0 1 2.708 4.05c.846.078 1.698.078 2.544 0a4.465 4.465 0 0 1 2.736-3.979 4.262 4.262 0 0 1 1.609-.308 4.618 4.618 0 0 1 3.149 1.227 14.496 14.496 0 0 0 1.842-1.811 4.41 4.41 0 0 1-.907-4.79 4.474 4.474 0 0 1 4.042-2.715c.083-.86.083-1.724 0-2.584v.006zm-13.667 6.77a5.508 5.508 0 1 1 5.486-5.51 5.5 5.5 0 0 1-5.486 5.51z" fill="#D18EE2"></path></g></svg><svg width="33" height="33" viewBox="0 0 33 33" id="16-gear-white" y="495"><title>Group-8</title><g fill="none" fill-rule="evenodd"><path d="M0 0h33v33H0z"></path><path d="M32.894 18.411a2.017 2.017 0 0 1-1.994 1.788h-.274a2.218 2.218 0 0 0-1.472 3.867c.784.723.88 1.928.22 2.766a16.282 16.282 0 0 1-2.681 2.638 2.023 2.023 0 0 1-1.238.43 2.053 2.053 0 0 1-1.499-.655 2.364 2.364 0 0 0-1.718-.717 2.074 2.074 0 0 0-.77.145 2.247 2.247 0 0 0-1.376 2.145 2.03 2.03 0 0 1-1.8 2.082 16.44 16.44 0 0 1-3.713-.01 2.012 2.012 0 0 1-1.774-2.127 2.25 2.25 0 0 0-1.361-2.18 2.063 2.063 0 0 0-.784-.15 2.373 2.373 0 0 0-1.719.716 2.034 2.034 0 0 1-2.777.22 16.298 16.298 0 0 1-2.6-2.645 2.006 2.006 0 0 1 .22-2.736 2.254 2.254 0 0 0 .565-2.487 2.2 2.2 0 0 0-1.994-1.375h-.083A2.162 2.162 0 0 1 .113 18.33a15.572 15.572 0 0 1 0-3.752 1.997 1.997 0 0 1 2.063-1.788 2.38 2.38 0 0 0 2.241-1.355c.36-.871.134-1.874-.564-2.507a2.04 2.04 0 0 1-.22-2.764 16.537 16.537 0 0 1 2.668-2.64 2.07 2.07 0 0 1 1.251-.43c.57.001 1.113.24 1.5.66.452.46 1.072.717 1.718.71.263.003.524-.043.77-.137a2.25 2.25 0 0 0 1.375-2.15A2.028 2.028 0 0 1 14.716.1a16.514 16.514 0 0 1 3.713.01 2.013 2.013 0 0 1 1.773 2.125 2.233 2.233 0 0 0 1.362 2.182c.25.1.515.15.784.149a2.377 2.377 0 0 0 1.718-.714 2.024 2.024 0 0 1 2.764-.222c.97.777 1.846 1.663 2.613 2.641.664.83.568 2.035-.22 2.75a2.217 2.217 0 0 0 1.526 3.86 2.159 2.159 0 0 1 2.145 1.787 16.32 16.32 0 0 1 0 3.743zm-2.723-3.194a4.422 4.422 0 0 1-3.08-7.49 13.226 13.226 0 0 0-1.787-1.808 4.61 4.61 0 0 1-3.149 1.238 4.209 4.209 0 0 1-1.636-.32 4.437 4.437 0 0 1-2.71-4.053 13.791 13.791 0 0 0-2.543 0 4.154 4.154 0 0 1-2.846 3.712 4.01 4.01 0 0 1-1.513.574 4.61 4.61 0 0 1-3.135-1.225 13.338 13.338 0 0 0-1.842 1.81 4.436 4.436 0 0 1 .907 4.791 4.538 4.538 0 0 1-4.042 2.703 14.75 14.75 0 0 0-.014 2.586 4.415 4.415 0 0 1 3.08 7.492 14.919 14.919 0 0 0 1.788 1.81 4.656 4.656 0 0 1 3.148-1.238 4.228 4.228 0 0 1 1.65.322 4.428 4.428 0 0 1 2.71 4.05c.845.078 1.697.078 2.543 0a4.465 4.465 0 0 1 2.736-3.979 4.263 4.263 0 0 1 1.609-.308 4.619 4.619 0 0 1 3.149 1.227 14.497 14.497 0 0 0 1.842-1.811 4.41 4.41 0 0 1-.907-4.79 4.474 4.474 0 0 1 4.042-2.715c.083-.86.083-1.724 0-2.584v.006zm-13.667 6.77a5.508 5.508 0 1 1 5.486-5.51 5.5 5.5 0 0 1-5.486 5.51z" fill="#FFF"></path></g></svg><svg width="33" height="33" viewBox="0 0 33 33" id="17-chart-purple" y="528"><title>icon_n9</title><g fill="none" fill-rule="evenodd"><path d="M0 0h33v33H0z"></path><path d="M14.881 32.998C6.953 32.998 0 25.916 0 17.842 0 9.923 6.402 3.233 14.025 3.233c.636 0 1.118.516 1.118 1.154v12.248c0 1.118 1.22 1.22 1.22 1.22h12.249c.638 0 1.153.484 1.153 1.12 0 7.62-6.816 14.023-14.884 14.023zm16.69-18.238H18.941a1.044 1.044 0 0 1-1.057-1.057V1.075C17.885.48 18.357 0 18.951 0 27.02 0 32.65 5.626 32.65 13.694a1.07 1.07 0 0 1-1.08 1.066z" fill="#D18EE2"></path></g></svg><svg width="33" height="33" viewBox="0 0 33 33" id="18-chart-white" y="561"><title>icon_n9</title><g fill="none" fill-rule="evenodd"><path d="M0 0h33v33H0z"></path><path d="M14.881 32.998C6.953 32.998 0 25.916 0 17.842 0 9.923 6.402 3.233 14.025 3.233c.636 0 1.118.516 1.118 1.154v12.248c0 1.118 1.22 1.22 1.22 1.22h12.249c.638 0 1.153.484 1.153 1.12 0 7.62-6.816 14.023-14.884 14.023zm16.69-18.238H18.941a1.044 1.044 0 0 1-1.057-1.057V1.075C17.885.48 18.357 0 18.951 0 27.02 0 32.65 5.626 32.65 13.694a1.07 1.07 0 0 1-1.08 1.066z" fill="#FFF"></path></g></svg><svg width="33" height="33" viewBox="0 0 33 33" id="19-people-purple" y="594"><title>icon_n10</title><g transform="translate(0 -2)" fill="none" fill-rule="evenodd"><path d="M0 0h33v33H0z"></path><path d="M25.198 15.657c2.162-1.568 3.677-4.875 3.677-7.418C28.875 4.795 26.103 2 22.687 2c-3.013 0-5.519 2.173-6.07 5.046a8.304 8.304 0 0 1 1.946 5.353c0 .471-.049.955-.121 1.438.507.716 1.088 1.35 1.732 1.82-.955.414-1.792.744-2.542 1.028a13.35 13.35 0 0 1-1.253 2.323l.48.179c3.935 1.478 5.828 2.425 5.828 7.771H33v-4.16c0-5.244-1.644-4.46-7.802-7.14m-4.573 11.3v4.16H0v-4.16c0-5.244 1.64-4.46 7.798-7.141-2.162-1.568-3.673-4.875-3.673-7.418 0-3.444 2.768-6.24 6.188-6.24 3.415 0 6.187 2.796 6.187 6.24 0 2.543-1.515 5.85-3.677 7.418 6.158 2.68 7.802 1.897 7.802 7.141" fill="#D18EE2"></path></g></svg><svg width="33" height="33" viewBox="0 0 33 33" id="20-people-white" y="627"><title>icon_n10</title><g transform="translate(0 -2)" fill="none" fill-rule="evenodd"><path d="M0 0h33v33H0z"></path><path d="M25.2 15.658c2.162-1.568 3.677-4.875 3.677-7.418 0-3.444-2.772-6.24-6.188-6.24-3.013 0-5.52 2.174-6.071 5.046a8.305 8.305 0 0 1 1.946 5.354c0 .471-.048.955-.12 1.438.507.716 1.087 1.35 1.732 1.82a57.22 57.22 0 0 1-2.542 1.028 13.351 13.351 0 0 1-1.253 2.323l.48.18c3.935 1.478 5.828 2.424 5.828 7.771h10.314V22.8c0-5.245-1.644-4.46-7.803-7.142M20.627 26.96v4.16H0v-4.16c0-5.245 1.64-4.46 7.799-7.142-2.163-1.568-3.674-4.875-3.674-7.418 0-3.444 2.768-6.24 6.188-6.24 3.416 0 6.188 2.796 6.188 6.24 0 2.543-1.515 5.85-3.677 7.418 6.159 2.681 7.803 1.897 7.803 7.142" fill="#FFF"></path></g></svg><svg width="33" height="33" viewBox="0 0 21 33" id="21-arrow-grey" y="660"><title>Group</title><g transform="translate(-6)" fill="none" fill-rule="evenodd"><path fill="none" d="M0 0h33v33H0z"></path><path d="M9.85 0L6 3.85 18.65 16.5 6 29.15 9.85 33l16.5-16.5L9.85 0z" fill="#DADADA"></path></g></svg><svg width="33" height="33" viewBox="0 0 21 33" id="22-arrow-purple" y="693"><title>Group-11</title><g transform="translate(-7)" fill="none" fill-rule="evenodd"><path d="M0 0h33v33H0z"></path><path d="M10.85 0L7 3.85 19.65 16.5 7 29.15 10.85 33l16.5-16.5L10.85 0z" fill="#D18EE2"></path></g></svg><svg width="33" height="33" viewBox="0 0 21 33" id="23-arrow-white" y="726"><title>Group-11</title><g transform="translate(-7)" fill="none" fill-rule="evenodd"><path d="M0 0h33v33H0z"></path><path d="M10.85 0L7 3.85 19.65 16.5 7 29.15 10.85 33l16.5-16.5L10.85 0z" fill="#FFF"></path></g></svg><svg width="33" height="33" viewBox="0 0 33 33" id="24-magnifying-glass" y="759"><title>icon_search</title><g fill="none" fill-rule="evenodd"><path d="M0 0h33v33H0z"></path><path d="M31.406 33a1.58 1.58 0 0 1-1.124-.46l-7.406-7.353C17 29.825 8.523 29.074 3.556 23.475c-4.968-5.598-4.7-14.098.612-19.373 5.311-5.274 13.819-5.49 19.39-.49 5.571 4.999 6.27 13.474 1.592 19.317l7.39 7.357a1.577 1.577 0 0 1-.015 2.24c-.295.301-.698.472-1.119.474zM14.033 3.04c-6.105 0-11.055 4.945-11.055 11.046 0 6.1 4.95 11.046 11.055 11.046 6.105 0 11.054-4.946 11.054-11.046 0-6.101-4.95-11.047-11.054-11.047z" fill="#EB8B2D"></path></g></svg><svg width="33" height="33" viewBox="0 0 33 33" id="25-icon_edit" y="792"><title>icon_edit</title><path d="M0 3.997A4.002 4.002 0 0 1 3.997 0h25.006A4.002 4.002 0 0 1 33 3.997v25.006A4.002 4.002 0 0 1 29.003 33H3.997A4.002 4.002 0 0 1 0 29.003V3.997zm18.987 7.371l3.35 2.802-8.297 9.922-3.35-2.801 8.297-9.923zm-9.281 14.65l3.8-1.162-3.35-2.851-.45 4.013zM20.143 9.879l3.35 2.801-.598.717-3.35-2.802.598-.716zm1.742-2.114l3.35 2.8-1.106 1.323-3.35-2.8 1.106-1.323z" fill="#89A" fill-rule="evenodd"></path></svg><svg width="33" height="33" viewBox="0 0 33 33" id="26-arrow-in-circle" y="825"><title>icon_pricing_down</title><g fill="none" fill-rule="evenodd"><circle fill="#89A" cx="16.5" cy="16.5" r="16.5"></circle><path d="M15.777 13.108c-.01.013-.015-2.72-.025-2.706l-7.2 8.486c-.402.477-.402 1.252 0 1.73.198.239.458.382.747.382H23.7c.295 0 .557-.152.745-.387.406-.473.406-1.248.004-1.725l-7.216-8.53c-.403-.477-1.054-.477-1.456 0v2.75z" fill="#FFF"></path></g></svg><svg width="33" height="33" viewBox="0 0 33 33" id="27-close-white" y="858"><title>icon_close</title><path d="M10.985 16.5L-.046 5.47 5.469-.047 16.5 10.984 27.53-.045l5.516 5.515L22.016 16.5l11.03 11.03-5.515 5.516L16.5 22.016 5.47 33.045l-5.516-5.515L10.984 16.5z" fill="#FFF" fill-rule="evenodd"></path></svg><svg width="33" height="33" viewBox="0 0 33 33" id="28-icon_plus" y="891"><title>icon_plus</title><path d="M16.212.003C7.138.16-.156 7.714.002 16.788c.159 9.074 7.712 16.368 16.786 16.21 9.074-.159 16.368-7.712 16.21-16.786C32.838 7.138 25.285-.156 16.211.002zm8.566 18.003l-6.6.115.116 6.599-3.3.058-.115-6.6-6.599.116-.058-3.3 6.6-.115-.116-6.599 3.3-.058.115 6.6 6.599-.116.058 3.3z" fill="#89A" fill-rule="evenodd"></path></svg><svg width="33" height="33" viewBox="0 0 33 33" id="29-mandatory-star" y="924"><title>icon_mendatory</title><path d="M31.093 14.593l-8.396-.66 5.463-6.38c.733-.733.733-1.98 0-2.713-.733-.733-1.98-.733-2.713 0l-6.38 5.463-.66-8.396A1.894 1.894 0 0 0 16.5 0a1.894 1.894 0 0 0-1.907 1.907l-.66 8.396-6.38-5.463c-.733-.733-1.98-.733-2.713 0-.733.733-.733 1.98 0 2.713l5.463 6.38-8.396.66A1.894 1.894 0 0 0 0 16.5c0 .513.22 1.027.55 1.357.33.33.843.55 1.357.55l8.396.66-5.463 6.38c-.733.733-.733 1.98 0 2.713.367.367.88.55 1.357.55.476 0 .99-.183 1.356-.55l6.38-5.463.66 8.396c0 .514.22 1.027.55 1.357.33.33.844.55 1.357.55a1.894 1.894 0 0 0 1.907-1.907l.66-8.396 6.38 5.463c.366.367.88.55 1.356.55.477 0 .99-.183 1.357-.55.733-.733.733-1.98 0-2.713l-5.463-6.38 8.396-.66A1.894 1.894 0 0 0 33 16.5a1.894 1.894 0 0 0-1.907-1.907z" fill="#CD1719" fill-rule="evenodd"></path></svg><svg width="33" height="33" viewBox="0 0 33 33" id="30-tick-white" y="957"><title>icon_checkboxthick</title><path d="M29.205 4.373a1.283 1.283 0 0 0-1.808 0L11.36 20.41a1.283 1.283 0 0 1-1.808 0l-3.95-3.95a1.283 1.283 0 0 0-1.808 0l-2.422 2.424a1.283 1.283 0 0 0 0 1.808l8.18 8.178a1.283 1.283 0 0 0 1.808 0L31.627 8.603a1.283 1.283 0 0 0 0-1.808l-2.422-2.422z" fill="#FBFBFB" fill-rule="evenodd"></path></svg><svg width="33" height="33" viewBox="0 0 33 33" id="31-icon_phone" y="990"><title>icon_phone</title><path d="M6.6 14.3c2.567 5.133 6.967 9.35 12.1 12.1l4.033-4.033c.55-.55 1.284-.734 1.834-.367 2.016.733 4.216 1.1 6.6 1.1 1.1 0 1.833.733 1.833 1.833v6.234c0 1.1-.733 1.833-1.833 1.833C13.933 33 0 19.067 0 1.833 0 .733.733 0 1.833 0H8.25c1.1 0 1.833.733 1.833 1.833 0 2.2.367 4.4 1.1 6.6.184.55 0 1.284-.366 1.834L6.6 14.3z" fill="#FFF" fill-rule="evenodd"></path></svg><svg width="33" height="33" viewBox="0 0 33 33" id="32-icon_play" y="1023"><title>icon_play</title><path d="M9.234 31.414C7.448 32.722 6 31.996 6 29.782V3.213C6 1.004 7.442.27 9.234 1.581l17.148 12.55c1.787 1.307 1.793 3.422 0 4.734L9.234 31.415z" fill="#626272" fill-rule="evenodd"></path></svg><svg width="33" height="33" viewBox="0 0 33 33" id="33-hierarchy-purple" y="1056"><title>Group-11</title><g transform="translate(0 -1)" fill="none" fill-rule="evenodd"><path d="M0 0h33v33H0z"></path><path d="M16.623 7.717c1.95 0 3.548-1.493 3.548-3.359C20.171 2.493 18.573 1 16.623 1s-3.548 1.493-3.548 3.358c0 1.866 1.599 3.359 3.548 3.359zm.688 8.073h10.416V18.828h-1.375v-2.35l.687.687H6.207l.688-.687v2.35H5.52V15.79h10.417v-1.664h1.374v1.664zm12.752 9.887a3.11 3.11 0 0 0 .402-1.53c0-1.84-1.602-3.304-3.549-3.304-1.946 0-3.548 1.465-3.548 3.304 0 .554.145 1.074.402 1.53a8.459 8.459 0 0 0-1.284 1.28c-1.03 1.26-1.653 2.733-1.653 4.4v.688h6.083V30.67H21.52l.688.688c0-1.319.5-2.5 1.343-3.532a7.315 7.315 0 0 1 1.131-1.112c.612.462 1.39.737 2.234.737.844 0 1.623-.275 2.235-.737a7.314 7.314 0 0 1 1.131 1.112c.843 1.032 1.343 2.213 1.343 3.532l.687-.688h-5.396v1.375H33v-.687c0-1.668-.624-3.142-1.653-4.402a8.457 8.457 0 0 0-1.284-1.28zm-20.832 0a3.11 3.11 0 0 0 .402-1.53c0-1.84-1.602-3.304-3.549-3.304-1.946 0-3.548 1.465-3.548 3.304 0 .554.145 1.074.402 1.53a8.46 8.46 0 0 0-1.284 1.279C.624 28.216 0 29.69 0 31.358v.687H6.084V30.67H.687l.688.688c0-1.319.5-2.5 1.344-3.532a7.316 7.316 0 0 1 1.131-1.112c.612.462 1.39.737 2.234.737.844 0 1.623-.275 2.235-.737a7.315 7.315 0 0 1 1.131 1.112c.843 1.032 1.343 2.213 1.343 3.532l.688-.688H6.084v1.375H12.168v-.687c0-1.668-.624-3.142-1.653-4.402a8.459 8.459 0 0 0-1.284-1.279zm7.392-19.335c-1.21 0-2.173-.9-2.173-1.984s.963-1.983 2.173-1.983 2.173.899 2.173 1.983c0 1.085-.963 1.984-2.173 1.984zm0 4.69h-5.396l.687.688c0-1.353.502-2.563 1.348-3.62.3-.374.622-.702.943-.978.188-.162.33-.269.401-.316l-.763-1.144c-.43.287-1.043.815-1.654 1.579-1.028 1.283-1.65 2.783-1.65 4.48v.687h6.085v-1.375zm0 1.376H22.708v-.688c0-1.696-.621-3.196-1.649-4.48-.61-.763-1.224-1.291-1.653-1.578l-.764 1.144c.072.047.213.154.402.316.32.276.642.604.942.978.846 1.057 1.347 2.267 1.347 3.62l.688-.687h-5.396v1.375z" fill="#D18EE2"></path></g></svg><svg width="33" height="33" viewBox="0 0 33 33" id="34-hierarchy-white" y="1089"><title>Group-11</title><g transform="translate(0 -1)" fill="none" fill-rule="evenodd"><path d="M0 0h33v33H0z"></path><path d="M16.623 7.717c1.95 0 3.548-1.493 3.548-3.359C20.171 2.493 18.573 1 16.623 1s-3.548 1.493-3.548 3.358c0 1.866 1.599 3.359 3.548 3.359zm.688 8.073h10.416V18.828h-1.375v-2.35l.687.687H6.207l.688-.687v2.35H5.52V15.79h10.417v-1.664h1.374v1.664zm12.752 9.887a3.11 3.11 0 0 0 .402-1.53c0-1.84-1.602-3.304-3.549-3.304-1.946 0-3.548 1.465-3.548 3.304 0 .554.145 1.074.402 1.53a8.459 8.459 0 0 0-1.284 1.28c-1.03 1.26-1.653 2.733-1.653 4.4v.688h6.083V30.67H21.52l.688.688c0-1.319.5-2.5 1.343-3.532a7.315 7.315 0 0 1 1.131-1.112c.612.462 1.39.737 2.234.737.844 0 1.623-.275 2.235-.737a7.314 7.314 0 0 1 1.131 1.112c.843 1.032 1.343 2.213 1.343 3.532l.687-.688h-5.396v1.375H33v-.687c0-1.668-.624-3.142-1.653-4.402a8.457 8.457 0 0 0-1.284-1.28zm-20.832 0a3.11 3.11 0 0 0 .402-1.53c0-1.84-1.602-3.304-3.549-3.304-1.946 0-3.548 1.465-3.548 3.304 0 .554.145 1.074.402 1.53a8.46 8.46 0 0 0-1.284 1.279C.624 28.216 0 29.69 0 31.358v.687H6.084V30.67H.687l.688.688c0-1.319.5-2.5 1.344-3.532a7.316 7.316 0 0 1 1.131-1.112c.612.462 1.39.737 2.234.737.844 0 1.623-.275 2.235-.737a7.315 7.315 0 0 1 1.131 1.112c.843 1.032 1.343 2.213 1.343 3.532l.688-.688H6.084v1.375H12.168v-.687c0-1.668-.624-3.142-1.653-4.402a8.459 8.459 0 0 0-1.284-1.279zm7.392-19.335c-1.21 0-2.173-.9-2.173-1.984s.963-1.983 2.173-1.983 2.173.899 2.173 1.983c0 1.085-.963 1.984-2.173 1.984zm0 4.69h-5.396l.687.688c0-1.353.502-2.563 1.348-3.62.3-.374.622-.702.943-.978.188-.162.33-.269.401-.316l-.763-1.144c-.43.287-1.043.815-1.654 1.579-1.028 1.283-1.65 2.783-1.65 4.48v.687h6.085v-1.375zm0 1.376H22.708v-.688c0-1.696-.621-3.196-1.649-4.48-.61-.763-1.224-1.291-1.653-1.578l-.764 1.144c.072.047.213.154.402.316.32.276.642.604.942.978.846 1.057 1.347 2.267 1.347 3.62l.688-.687h-5.396v1.375z" fill="#FFF"></path></g></svg><svg width="64" height="33" viewBox="0 0 64 33" id="35-icon_toggle_merged" y="1122"><title>icon_toggle_merged</title><g transform="translate(0 8)" fill="none" fill-rule="evenodd"><rect fill="#65B32E" width="31.83" height="17" rx="8"></rect><path d="M7.036 7.635a1.028 1.028 0 0 0-.795-.359c-.314 0-.579.12-.794.359-.216.24-.324.529-.324.868 0 .339.108.627.324.865.215.237.48.356.794.356.315 0 .58-.119.795-.356.215-.238.323-.526.323-.865 0-.34-.108-.629-.323-.868zm-.797 2.829A1.925 1.925 0 0 1 4.832 9.9c-.38-.376-.57-.842-.57-1.401s.19-1.025.57-1.4c.381-.376.85-.564 1.407-.564.556 0 1.025.188 1.406.563.38.376.57.842.57 1.401s-.19 1.025-.57 1.4c-.381.376-.85.564-1.406.564zm5.323-3.84h.84v3.802h-.84L9.768 8.043v2.383h-.841V6.623h.787l1.848 2.448V6.623z" fill="#FFF"></path><rect fill="#89A" transform="matrix(-1 0 0 1 95.53 0)" x="31.85" width="31.83" height="17" rx="8"></rect><path d="M52.565 8.006a.954.954 0 0 0-.734-.329c-.291 0-.536.11-.735.33-.2.218-.299.483-.299.794 0 .31.1.574.299.792.2.217.444.326.735.326.29 0 .535-.109.734-.326.2-.218.3-.482.3-.792 0-.31-.1-.576-.3-.795zm-.737 2.59c-.515 0-.948-.171-1.3-.515A1.72 1.72 0 0 1 50 8.798c0-.511.176-.939.528-1.282a1.789 1.789 0 0 1 1.3-.516c.515 0 .948.172 1.3.516.352.343.528.77.528 1.282s-.176.94-.528 1.283a1.789 1.789 0 0 1-1.3.515zm4.877-3.516v.682H55.09v.752h1.534v.683H55.09v1.365h-.777V7.08h2.39zm3.048 0v.682H58.14v.752h1.534v.683H58.14v1.365h-.777V7.08h2.391z" fill="#FFF"></path></g></svg><svg width="33" height="33" viewBox="0 0 33 33" id="36-icon_mail" y="1155"><title>icon_mail</title><path d="M29.7 3H3.3A3.31 3.31 0 0 0 0 6.3v19.8a3.31 3.31 0 0 0 3.3 3.3h26.4a3.31 3.31 0 0 0 3.3-3.3V6.3A3.31 3.31 0 0 0 29.7 3zM16.5 18.056L0 10.042V8.156l16.5 8.015L33 8.156v1.886l-16.5 8.014z" fill="#FFF" fill-rule="evenodd"></path></svg><svg width="33" height="33" viewBox="0 0 33 33" id="37-icon_linkedin" y="1188"><title>icon_linkedin</title><path d="M0 3.778c0-1.09.38-1.992 1.138-2.706C1.896.357 2.887 0 4.109 0c1.223 0 2.203.357 2.939 1.072.736.714 1.112 1.616 1.127 2.706.015 1.075-.357 1.974-1.116 2.696-.759.721-1.756 1.082-2.994 1.082h-.044c-1.208 0-2.18-.36-2.916-1.082C.368 5.752 0 4.854 0 3.778zm.42 28.656V10.54h7.29v21.895H.42zm10.578.432c.03-5.877 0-11.744 0-15.397V10.87L19 10.54v3.181c.25-.47.552-.883.862-1.237.309-.353.725-.736 1.248-1.149.523-.412 1.163-.733 1.922-.96.759-.23 1.602-.343 2.53-.343 2.519 0 4.544.836 6.076 2.507 1.532 1.672 1.355 3.905 1.355 7.13v13.198h-6.599l.273-12.142c0-1.546-.299-2.758-.895-3.634-.597-.877-1.528-1.315-2.795-1.315-.928 0-1.705.254-2.331.762-.626.509-1.641 2.38-1.95 3.132-.163.441 0 13.197 0 13.197h-7.7z" fill="#FFF" fill-rule="evenodd"></path></svg><svg width="33" height="33" viewBox="0 0 33 33" id="38-icon_fb" y="1221"><title>icon_fb</title><g fill="#FFF" fill-rule="evenodd"><path d="M6.6 14.3c2.567 5.133 6.967 9.35 12.1 12.1l4.033-4.033c.55-.55 1.284-.734 1.834-.367 2.016.733 4.216 1.1 6.6 1.1 1.1 0 1.833.733 1.833 1.833v6.234c0 1.1-.733 1.833-1.833 1.833C13.933 33 0 19.067 0 1.833 0 .733.733 0 1.833 0H8.25c1.1 0 1.833.733 1.833 1.833 0 2.2.367 4.4 1.1 6.6.184.55 0 1.284-.366 1.834L6.6 14.3z"></path><path d="M16.5 33H0V0h33v33H22V22h5.5v-5.5H22v-4.051C22 9.625 27.5 11 27.5 11V5.5c-5.5 0-6.973.117-8.25 1.375-1.277 1.258-2.75 3.29-2.75 5.574V16.5H11V22h5.5s-.308 6.643 0 11z"></path></g></svg><svg width="33" height="33" viewBox="0 0 33 33" id="39-icon_twitter" y="1254"><title>icon_twitter</title><path d="M0 26.783c3.18 2.02 6.639 3.03 10.377 3.03 2.406 0 4.662-.382 6.768-1.145 2.105-.762 3.91-1.783 5.414-3.061a20.325 20.325 0 0 0 3.883-4.415 19.456 19.456 0 0 0 2.417-5.22 19.42 19.42 0 0 0 .79-5.431c0-.387-.011-.677-.033-.87A13.153 13.153 0 0 0 33 6.158a14.337 14.337 0 0 1-3.9 1.096c1.462-.86 2.46-2.116 2.998-3.77-1.397.816-2.836 1.364-4.319 1.643C26.47 3.709 24.825 3 22.85 3c-1.87 0-3.465.66-4.786 1.982-1.321 1.321-1.982 2.916-1.982 4.786 0 .623.054 1.138.161 1.546A19.16 19.16 0 0 1 8.443 9.22a19.184 19.184 0 0 1-6.187-4.995A6.703 6.703 0 0 0 1.32 7.64c0 2.449.978 4.329 2.933 5.64-1.01-.022-2.084-.302-3.223-.839v.065c0 1.611.537 3.045 1.612 4.302 1.074 1.257 2.395 2.036 3.963 2.337-.623.171-1.17.257-1.643.257-.28 0-.698-.043-1.257-.129a6.88 6.88 0 0 0 2.4 3.352 6.43 6.43 0 0 0 3.916 1.353c-2.492 1.934-5.295 2.9-8.41 2.9A12.99 12.99 0 0 1 0 26.784z" fill="#FFF" fill-rule="evenodd"></path></svg></svg>